<svg width="275" height="71" viewBox="0 0 275 71" fill="none" xmlns="http://www.w3.org/2000/svg">
<path d="M37.9841 68.5323C37.5145 23.1683 47.377 -3.37208 47.377 4.81216" stroke="#1E0380"/>
<path d="M20.3726 66.194C19.903 20.8299 29.7654 -5.71046 29.7654 2.47378" stroke="#1E0380"/>
<path d="M67.6426 34.0617C22.0875 34.5294 -4.56455 24.7083 3.65415 24.7083" stroke="#1E0380"/>
<path d="M66.4685 49.2611C20.9134 49.7288 -5.73868 39.9077 2.48002 39.9077" stroke="#1E0380"/>
<path d="M56.5704 59.6536C20.7887 31.5732 6.21091 7.28107 12.6132 12.4128" stroke="#1E0380"/>
<path d="M9.93753 57.7507C50.1406 36.4115 68.8012 15.0682 61.5887 18.9921" stroke="#1E0380"/>
<ellipse cx="35.0489" cy="36.3799" rx="30.5266" ry="30.3986" fill="white"/>
<path d="M47.3769 4.22754C47.9044 49.7864 37.9841 76.7517 37.9841 68.5323" stroke="#1E0380"/>
<path d="M29.7654 1.88928C30.2929 47.4482 20.3726 74.4134 20.3726 66.1941" stroke="#1E0380"/>
<path d="M3.06708 24.7083C48.8178 24.1831 75.8966 34.0618 67.6426 34.0618" stroke="#1E0380"/>
<path d="M1.89297 39.9077C47.6437 39.3825 74.7225 49.2612 66.4685 49.2612" stroke="#1E0380"/>
<path d="M12.156 12.0462C48.1263 40.2038 63.0002 64.8073 56.5704 59.6535" stroke="#1E0380"/>
<path d="M62.1039 18.7117C21.7014 40.0938 2.69399 61.6913 9.93746 57.7506" stroke="#1E0380"/>
<path d="M65.0755 36.3799C65.0755 52.8905 51.6341 66.2786 35.0489 66.2786C18.4637 66.2786 5.02228 52.8905 5.02228 36.3799C5.02228 19.8694 18.4637 6.48132 35.0489 6.48132C51.6341 6.48132 65.0755 19.8694 65.0755 36.3799Z" stroke="#1E0380"/>
<path d="M75.2034 37.9119V25.9119H77.2514V36.9199L76.5314 36.7919L84.8994 25.9119H87.6514V37.9119H85.6034V26.8079L86.3234 26.9359L77.8914 37.9119H75.2034ZM90.0103 28.8559H92.0743V37.9119H90.0103V28.8559ZM97.7063 28.8559H99.7703V37.9119H97.7063V28.8559ZM91.1783 32.5199H98.5703V34.1199H91.1783V32.5199ZM104.843 29.5759H106.923V37.9119H104.843V29.5759ZM101.083 28.8559H110.683V30.4879H101.083V28.8559ZM116.548 38.1359C115.492 38.1359 114.553 37.9386 113.732 37.5439C112.911 37.1386 112.265 36.5786 111.796 35.8639C111.327 35.1493 111.092 34.3173 111.092 33.3679C111.092 32.4293 111.311 31.6079 111.748 30.9039C112.196 30.1893 112.809 29.6346 113.588 29.2399C114.377 28.8346 115.279 28.6319 116.292 28.6319C117.305 28.6319 118.18 28.8613 118.916 29.3199C119.663 29.7679 120.239 30.4026 120.644 31.2239C121.049 32.0453 121.252 33.0106 121.252 34.1199H112.724V32.5359H120.212L119.172 33.1279C119.14 32.5306 118.996 32.0186 118.74 31.5919C118.495 31.1653 118.159 30.8399 117.732 30.6159C117.316 30.3813 116.82 30.2639 116.244 30.2639C115.636 30.2639 115.103 30.3866 114.644 30.6319C114.196 30.8773 113.844 31.2239 113.588 31.6719C113.332 32.1093 113.204 32.6319 113.204 33.2399C113.204 33.9119 113.353 34.4933 113.652 34.9839C113.961 35.4746 114.393 35.8533 114.948 36.1199C115.513 36.3759 116.18 36.5039 116.948 36.5039C117.641 36.5039 118.351 36.3973 119.076 36.1839C119.801 35.9599 120.441 35.6506 120.996 35.2559V36.7599C120.441 37.1866 119.764 37.5226 118.964 37.7679C118.175 38.0133 117.369 38.1359 116.548 38.1359ZM122.963 28.8559H125.043V32.0079L124.947 32.3279V34.1519L125.043 34.7119V40.5519H122.963V28.8559ZM124.243 33.3839C124.446 32.4239 124.782 31.5919 125.251 30.8879C125.721 30.1733 126.297 29.6186 126.979 29.2239C127.673 28.8293 128.441 28.6319 129.283 28.6319C130.169 28.6319 130.953 28.8346 131.635 29.2399C132.318 29.6346 132.851 30.1893 133.235 30.9039C133.619 31.6079 133.811 32.4346 133.811 33.3839C133.811 34.3226 133.619 35.1493 133.235 35.8639C132.851 36.5786 132.318 37.1386 131.635 37.5439C130.953 37.9386 130.169 38.1359 129.283 38.1359C128.441 38.1359 127.678 37.9386 126.995 37.5439C126.313 37.1493 125.731 36.5946 125.251 35.8799C124.782 35.1653 124.446 34.3333 124.243 33.3839ZM131.699 33.3839C131.699 32.7759 131.571 32.2426 131.315 31.7839C131.07 31.3146 130.729 30.9519 130.291 30.6959C129.854 30.4293 129.353 30.2959 128.787 30.2959C128.222 30.2959 127.689 30.4293 127.187 30.6959C126.697 30.9519 126.265 31.3146 125.891 31.7839C125.518 32.2426 125.214 32.7759 124.979 33.3839C125.214 33.9919 125.518 34.5306 125.891 34.9999C126.265 35.4586 126.697 35.8213 127.187 36.0879C127.689 36.3439 128.222 36.4719 128.787 36.4719C129.353 36.4719 129.854 36.3439 130.291 36.0879C130.729 35.8213 131.07 35.4586 131.315 34.9999C131.571 34.5306 131.699 33.9919 131.699 33.3839ZM135.542 28.8559H137.606V37.9119H135.542V28.8559ZM143.238 28.8559H145.302V37.9119H143.238V28.8559ZM136.71 32.5199H144.102V34.1199H136.71V32.5199ZM152.454 38.1359C151.398 38.1359 150.46 37.9386 149.638 37.5439C148.817 37.1386 148.172 36.5786 147.702 35.8639C147.233 35.1493 146.998 34.3173 146.998 33.3679C146.998 32.4293 147.217 31.6079 147.654 30.9039C148.102 30.1893 148.716 29.6346 149.494 29.2399C150.284 28.8346 151.185 28.6319 152.198 28.6319C153.212 28.6319 154.086 28.8613 154.822 29.3199C155.569 29.7679 156.145 30.4026 156.55 31.2239C156.956 32.0453 157.158 33.0106 157.158 34.1199H148.63V32.5359H156.118L155.078 33.1279C155.046 32.5306 154.902 32.0186 154.646 31.5919C154.401 31.1653 154.065 30.8399 153.638 30.6159C153.222 30.3813 152.726 30.2639 152.15 30.2639C151.542 30.2639 151.009 30.3866 150.55 30.6319C150.102 30.8773 149.75 31.2239 149.494 31.6719C149.238 32.1093 149.11 32.6319 149.11 33.2399C149.11 33.9119 149.26 34.4933 149.558 34.9839C149.868 35.4746 150.3 35.8533 150.854 36.1199C151.42 36.3759 152.086 36.5039 152.854 36.5039C153.548 36.5039 154.257 36.3973 154.982 36.1839C155.708 35.9599 156.348 35.6506 156.902 35.2559V36.7599C156.348 37.1866 155.67 37.5226 154.87 37.7679C154.081 38.0133 153.276 38.1359 152.454 38.1359ZM161.312 29.5759H163.392V37.9119H161.312V29.5759ZM157.552 28.8559H167.152V30.4879H157.552V28.8559ZM167.428 31.4319H171.156V33.1439H167.428V31.4319ZM173.198 37.9119V28.8559H175.278V36.1519L174.654 35.9279L180.43 28.8559H182.798L175.118 37.9119H173.198ZM180.654 37.9119L177.838 33.4319L179.294 32.1199L183.086 37.9119H180.654ZM188.675 38.1359C187.576 38.1359 186.611 37.9386 185.779 37.5439C184.957 37.1386 184.312 36.5786 183.843 35.8639C183.384 35.1493 183.155 34.3226 183.155 33.3839C183.155 32.4346 183.384 31.6079 183.843 30.9039C184.312 30.1893 184.957 29.6346 185.779 29.2399C186.611 28.8346 187.576 28.6319 188.675 28.6319C189.773 28.6319 190.733 28.8346 191.555 29.2399C192.387 29.6346 193.032 30.1893 193.491 30.9039C193.96 31.6079 194.195 32.4346 194.195 33.3839C194.195 34.3226 193.96 35.1493 193.491 35.8639C193.032 36.5786 192.387 37.1386 191.555 37.5439C190.733 37.9386 189.773 38.1359 188.675 38.1359ZM188.675 36.5039C189.379 36.5039 189.981 36.3759 190.483 36.1199C190.995 35.8639 191.389 35.5066 191.667 35.0479C191.944 34.5786 192.083 34.0239 192.083 33.3839C192.083 32.7439 191.944 32.1946 191.667 31.7359C191.389 31.2666 190.995 30.9039 190.483 30.6479C189.981 30.3919 189.379 30.2639 188.675 30.2639C187.981 30.2639 187.379 30.3919 186.867 30.6479C186.355 30.9039 185.96 31.2666 185.683 31.7359C185.405 32.1946 185.267 32.7439 185.267 33.3839C185.267 34.0239 185.405 34.5786 185.683 35.0479C185.96 35.5066 186.355 35.8639 186.867 36.1199C187.379 36.3759 187.981 36.5039 188.675 36.5039ZM195.885 37.9119V28.8559H198.973L202.781 36.9199H201.965L205.741 28.8559H208.829V37.9119H206.877V29.5439H207.421L203.373 37.9119H201.341L197.293 29.5759L197.837 29.5599V37.9119H195.885ZM220.738 28.8559V37.9119H218.658V29.5119L219.618 30.4559H212.162L213.122 29.5119V37.9119H211.042V28.8559H220.738ZM231.396 37.9119L231.044 34.5519L231.46 33.3839L231.044 32.2319L231.396 28.8559H233.54L233.06 33.3839L233.54 37.9119H231.396ZM232.036 33.3839C231.833 34.3333 231.497 35.1653 231.028 35.8799C230.558 36.5946 229.977 37.1493 229.284 37.5439C228.601 37.9386 227.838 38.1359 226.996 38.1359C226.11 38.1359 225.326 37.9386 224.644 37.5439C223.961 37.1386 223.428 36.5786 223.044 35.8639C222.66 35.1493 222.468 34.3226 222.468 33.3839C222.468 32.4346 222.66 31.6079 223.044 30.9039C223.428 30.1893 223.961 29.6346 224.644 29.2399C225.326 28.8346 226.11 28.6319 226.996 28.6319C227.838 28.6319 228.601 28.8293 229.284 29.2239C229.977 29.6186 230.558 30.1733 231.028 30.8879C231.508 31.5919 231.844 32.4239 232.036 33.3839ZM224.58 33.3839C224.58 33.9919 224.702 34.5306 224.948 34.9999C225.204 35.4586 225.55 35.8213 225.988 36.0879C226.425 36.3439 226.926 36.4719 227.492 36.4719C228.068 36.4719 228.601 36.3439 229.092 36.0879C229.582 35.8213 230.014 35.4586 230.388 34.9999C230.772 34.5306 231.076 33.9919 231.3 33.3839C231.076 32.7759 230.772 32.2426 230.388 31.7839C230.014 31.3146 229.582 30.9519 229.092 30.6959C228.601 30.4293 228.068 30.2959 227.492 30.2959C226.926 30.2959 226.425 30.4293 225.988 30.6959C225.55 30.9519 225.204 31.3146 224.948 31.7839C224.702 32.2426 224.58 32.7759 224.58 33.3839ZM235.542 28.8559H237.606V37.9119H235.542V28.8559ZM243.238 28.8559H245.302V37.9119H243.238V28.8559ZM236.71 32.5199H244.102V34.1199H236.71V32.5199ZM247.51 37.9119V28.8559H249.558V36.8719L248.934 36.7279L255.126 28.8559H257.814V37.9119H255.766V29.7839L256.406 29.9439L250.134 37.9119H247.51ZM267.562 33.1279V34.5839H262.986L262.954 34.5359C262.293 34.5359 261.711 34.4186 261.21 34.1839C260.709 33.9493 260.319 33.6186 260.042 33.1919C259.765 32.7653 259.626 32.2693 259.626 31.7039C259.626 31.1386 259.765 30.6426 260.042 30.2159C260.319 29.7893 260.709 29.4586 261.21 29.2239C261.711 28.9786 262.293 28.8559 262.954 28.8559H269.034V37.9119H266.954V29.4479L267.642 30.3439H263.402C262.879 30.3439 262.469 30.4666 262.17 30.7119C261.882 30.9573 261.738 31.2933 261.738 31.7199C261.738 32.1466 261.882 32.4879 262.17 32.7439C262.469 32.9999 262.879 33.1279 263.402 33.1279H267.562ZM265.21 33.6719L261.85 37.9119H259.434L262.89 33.6719H265.21ZM136.813 53.1599C136.706 54.1413 136.359 55.0106 135.773 55.7679C135.197 56.5146 134.439 57.0959 133.501 57.5119C132.562 57.9279 131.49 58.1359 130.285 58.1359C128.941 58.1359 127.762 57.8746 126.749 57.3519C125.735 56.8293 124.946 56.1039 124.381 55.1759C123.815 54.2373 123.533 53.1493 123.533 51.9119C123.533 50.6746 123.815 49.5919 124.381 48.6639C124.946 47.7253 125.735 46.9946 126.749 46.4719C127.762 45.9493 128.941 45.6879 130.285 45.6879C131.49 45.6879 132.562 45.8959 133.501 46.3119C134.439 46.7279 135.197 47.3093 135.773 48.0559C136.359 48.8026 136.706 49.6719 136.813 50.6639H134.685C134.567 50.0239 134.311 49.4746 133.917 49.0159C133.533 48.5573 133.031 48.2053 132.413 47.9599C131.794 47.7039 131.079 47.5759 130.269 47.5759C129.33 47.5759 128.514 47.7519 127.821 48.1039C127.138 48.4559 126.61 48.9573 126.237 49.6079C125.863 50.2586 125.677 51.0266 125.677 51.9119C125.677 52.7973 125.863 53.5653 126.237 54.2159C126.61 54.8666 127.138 55.3679 127.821 55.7199C128.514 56.0719 129.33 56.2479 130.269 56.2479C131.079 56.2479 131.794 56.1253 132.413 55.8799C133.031 55.6346 133.533 55.2826 133.917 54.8239C134.311 54.3546 134.567 53.7999 134.685 53.1599H136.813ZM144.99 58.1359C143.625 58.1359 142.425 57.8746 141.39 57.3519C140.356 56.8293 139.55 56.1039 138.974 55.1759C138.398 54.2373 138.11 53.1493 138.11 51.9119C138.11 50.6746 138.398 49.5919 138.974 48.6639C139.55 47.7253 140.356 46.9946 141.39 46.4719C142.425 45.9493 143.625 45.6879 144.99 45.6879C146.356 45.6879 147.556 45.9493 148.59 46.4719C149.625 46.9946 150.43 47.7253 151.006 48.6639C151.582 49.5919 151.87 50.6746 151.87 51.9119C151.87 53.1493 151.582 54.2373 151.006 55.1759C150.43 56.1039 149.625 56.8293 148.59 57.3519C147.556 57.8746 146.356 58.1359 144.99 58.1359ZM144.99 56.2479C145.961 56.2479 146.798 56.0719 147.502 55.7199C148.206 55.3679 148.75 54.8666 149.134 54.2159C149.529 53.5653 149.726 52.7973 149.726 51.9119C149.726 51.0266 149.529 50.2586 149.134 49.6079C148.75 48.9573 148.206 48.4559 147.502 48.1039C146.798 47.7519 145.961 47.5759 144.99 47.5759C144.03 47.5759 143.193 47.7519 142.478 48.1039C141.774 48.4559 141.225 48.9573 140.83 49.6079C140.446 50.2586 140.254 51.0266 140.254 51.9119C140.254 52.7973 140.446 53.5653 140.83 54.2159C141.225 54.8666 141.774 55.3679 142.478 55.7199C143.193 56.0719 144.03 56.2479 144.99 56.2479ZM162.658 55.8319V54.1199H166.85C167.447 54.1199 167.959 54.0186 168.386 53.8159C168.823 53.6026 169.159 53.3093 169.394 52.9359C169.629 52.5519 169.746 52.1039 169.746 51.5919C169.746 51.0799 169.629 50.6373 169.394 50.2639C169.159 49.8906 168.823 49.6026 168.386 49.3999C167.959 49.1866 167.447 49.0799 166.85 49.0799H162.674V47.3679H166.946C167.949 47.3679 168.818 47.5493 169.554 47.9119C170.29 48.2639 170.861 48.7546 171.266 49.3839C171.682 50.0133 171.89 50.7493 171.89 51.5919C171.89 52.4346 171.682 53.1759 171.266 53.8159C170.861 54.4453 170.29 54.9413 169.554 55.3039C168.818 55.6559 167.949 55.8319 166.946 55.8319H162.658ZM158.018 55.8319C157.026 55.8319 156.157 55.6559 155.41 55.3039C154.674 54.9413 154.098 54.4453 153.682 53.8159C153.277 53.1759 153.074 52.4346 153.074 51.5919C153.074 50.7493 153.277 50.0133 153.682 49.3839C154.098 48.7546 154.674 48.2639 155.41 47.9119C156.157 47.5493 157.026 47.3679 158.018 47.3679H162.274V49.0799H158.098C157.511 49.0799 156.999 49.1866 156.562 49.3999C156.135 49.6026 155.805 49.8906 155.57 50.2639C155.335 50.6373 155.218 51.0799 155.218 51.5919C155.218 52.1039 155.335 52.5519 155.57 52.9359C155.805 53.3093 156.135 53.6026 156.562 53.8159C156.999 54.0186 157.511 54.1199 158.098 54.1199H162.29V55.8319H158.018ZM161.426 58.1999V45.6239H163.538V58.1999H161.426ZM176.763 46.8879H178.875V57.9119H176.763V46.8879ZM171.803 45.9119H183.835V47.7679H171.803V45.9119ZM184.944 55.1599V53.4159H193.328V55.1599H184.944ZM190.512 45.9119L196.272 57.9119H194.016L188.784 46.7119H189.6L184.368 57.9119H182.112L187.872 45.9119H190.512ZM204.087 45.9119C204.983 45.9119 205.756 46.0719 206.407 46.3919C207.068 46.7119 207.575 47.1599 207.927 47.7359C208.289 48.3013 208.471 48.9573 208.471 49.7039C208.471 50.4506 208.289 51.1119 207.927 51.6879C207.575 52.2533 207.068 52.6959 206.407 53.0159C205.756 53.3359 204.983 53.4959 204.087 53.4959H198.695V51.6719H204.007C204.732 51.6719 205.297 51.4959 205.703 51.1439C206.119 50.7919 206.327 50.3119 206.327 49.7039C206.327 49.0959 206.119 48.6159 205.703 48.2639C205.297 47.9119 204.732 47.7359 204.007 47.7359H198.903L199.847 46.6799V57.9119H197.735V45.9119H204.087ZM213.857 46.8879H215.969V57.9119H213.857V46.8879ZM208.897 45.9119H220.929V47.7679H208.897V45.9119Z" fill="black"/>
</svg>
